<svg xmlns="http://www.w3.org/2000/svg" preserveAspectRatio="xMidYMid" viewBox="0 0 172 172">
  <g fill-rule="evenodd">
    <path fill="#02a9ff" d="M111.3 111.2V41c0-4-2.2-6.2-6.2-6.2H91.4c-4 0-6.3 2.2-6.3 6.2v33.3c0 1 9 5.3 9.3 6.2 6.9 27 1.5 48.5-5 49.5 10.6.5 11.8 5.6 3.9 2.1 1.2-14.3 6-14.3 19.6-.5 0 .1 2.8 5.8 3 5.8H148c4 0 6.2-2.3 6.2-6.3v-13.7c0-4-2.2-6.2-6.3-6.2h-36.7Z"/>
    <path fill="#fefefe" d="m54.4 34.8-36 102.6h28l6-17.8H83l6 17.8h27.8l-36-102.6H54.4Zm4.4 62 8.7-28.3 9.6 28.4H58.8Z"/>
  </g>
</svg>
