<svg xmlns="http://www.w3.org/2000/svg" viewBox="0 0 560 560">
  <path fill="#fff" d="m76.8 407.3 238 23.5c4.7 15 11 29.5 20.2 40.3l-230.3-30.2a93.2 93.2 0 0 1-28-33.6zM299.7 332c.6 21 3.4 48 8.3 71L67 384c-7.5-22.8-9.9-36-11.7-55l244.5 3zm8.3-102.7a423 423 0 0 0-8.3 71l-244.5 3c1.8-19 4.2-32.2 11.7-54.9l241.1-19zm27-68a118.9 118.9 0 0 0-20.3 40.2L76.8 225a93.2 93.2 0 0 1 28-33.6L335 161.3z"/>
  <path fill="#00641E" d="M336.6 404.7c3.1-7.9 14.3-12.6 22.3-12 8.6.5 17.7 9.6 19.3 18.4a19.2 19.2 0 0 1 11-5.7c-.6-2.6-.8-5.3-.4-8.2 1.4-9.9 9.3-17.3 18.4-17.2 5.9 0 11 3 14.4 7.6l1-1c3.8-20 6.2-42.6 6.8-66.6 1.9-82.4-19-149.7-46.7-150.4-27.7-.6-51.6 65.7-53.5 148.1 0 0-1.5 30 7.4 87"/>
  <path fill="gold" d="M524 494.8c1.5-2.7 2.5-6 2.4-9.5.5-11.2-7.2-21.4-18-20.3.4-1.3.6-2.6.7-4 .6-11.3-7.1-21-17.4-21.7h-.6c1-2.8 1.6-6 1.4-9.2-.6-9.4-7-17.3-15.4-18.9-3-.5-6-.2-8.7.7-2.5-6.3-7.9-11-14.4-12-.5-10.1-7.8-18.5-17.3-19.2-6-.4-11.4 2.4-15.1 7a18 18 0 0 0-14.4-7.7c-9 0-17 7.3-18.4 17.2-.4 2.9-.2 5.6.3 8.2a17.7 17.7 0 0 0-10.9 5.7c-1.6-8.8-10.7-17.9-19.3-18.5-8-.5-19.3 4.4-22.3 12a154 154 0 0 0 40 83h.3a14.2 14.2 0 0 0 17.7 1.2h.4a14 14 0 0 0 13 1.7c3 6 9.4 9.9 16.6 9.3 5.7-.5 10.4-3.6 13.2-8h1c2.7 2.8 6.4 4.5 10.4 4.3 3.4 5 9.4 8.1 16.2 7.5 2.5-.2 4.9-1 7-2a18 18 0 0 0 15.6 6.3c6.2-.5 11.5-4 14.4-8.8a14 14 0 0 0 19.4-1.5h.4l1.5-2.4.2-.4"/>
  <path fill="#04A53C" d="M314.8 201.5 76.8 225a93.2 93.2 0 0 1 28-33.6L335 161.3a118.9 118.9 0 0 0-20.2 40.2zM335 471.1l-230.3-30.2a93.2 93.2 0 0 1-27.9-33.6l238 23.5c4.7 15 11 29.5 20.2 40.3zM67 384c-7.5-22.8-9.9-36-11.7-55l244.5 3c.6 21 3.4 48 8.3 71L67 384zm0-135.6 241.1-19a423 423 0 0 0-8.3 71l-244.5 2.9c1.8-19 4.2-32.2 11.7-54.9zm344.7-82.7c-15.3-17.8-26.2-26.1-35.6-25l-266.9 37.2c-42 4.3-75.7 65.4-76 138.3.3 72.8 34 134 76 138.3l267 37.2a27 27 0 0 0 6.5-.9c-2.1-.6-4-1.7-5.7-3.2h-.3a153.9 153.9 0 0 1-40-83c-8.9-56.8-7.4-86.9-7.4-86.9 1.9-82.4 25.8-148.7 53.5-148 27.7.6 48.6 68 46.7 150.3-.6 24-3 46.6-6.8 66.6a17.4 17.4 0 0 1 16.7-5.4c16.8-92-.8-182-27.7-215.5z"/>
</svg>
