<svg xmlns="http://www.w3.org/2000/svg" viewBox="0 0 560 560">
  <path fill="#fff" d="m370.6 474.2 23.4-238c15-4.7 29.5-11 40.3-20.2l-30.1 230.3a93.2 93.2 0 0 1-33.6 28zm-78.2 21.6 3-244.5a422 422 0 0 0 70.9-8.3l-19 241.1a221 221 0 0 1-55 11.7zM192.7 243c23 4.9 50 7.7 71 8.3l2.9 244.5a221 221 0 0 1-54.8-11.7L192.7 243zm-68-27a118.7 118.7 0 0 0 40.2 20.3l23.5 238a93.2 93.2 0 0 1-33.6-28L124.7 216z"/>
  <path fill="gold" d="M119 157.4c1.3 28.9 72.7 51.7 160.5 51.2 76.7-.4 140.6-18.5 156.3-42.3a23 23 0 0 0-14-7.4v-2.2a23 23 0 0 0-19.3-22.5 23 23 0 0 0-22.7-27.4h-.8a23 23 0 0 0 1.2-7.5 23 23 0 0 0-23-22.9 23 23 0 0 0-8.3 1.6A23 23 0 0 0 330 66a23 23 0 0 0-41-11.1 23 23 0 0 0-40 15.7 23 23 0 0 0 1.2 7 23 23 0 0 0-13.1 7.4 23 23 0 0 0-43.9-1.7 23 23 0 0 0-13.4 27.6 22.9 22.9 0 0 0-9.4-1.9 23 23 0 0 0-21.5 15.5 22.8 22.8 0 0 0-9.8-2.2 23 23 0 0 0-22.9 23.1 22.8 22.8 0 0 0 3.2 11.5l-.6.6"/>
  <path fill="#FA320A" d="M404.2 446.3a93.2 93.2 0 0 1-33.6 28l23.4-238c15-4.8 29.5-11.2 40.3-20.3l-30.1 230.3zm-57 37.8a221 221 0 0 1-54.8 11.7l3-244.5c20.8-.6 47.9-3.4 70.9-8.3l-19 241.1zm-135.4 0L192.7 243c23 4.9 50 7.7 71 8.3l2.9 244.5a221 221 0 0 1-54.8-11.7zm-57-37.8-30-230.3a118.7 118.7 0 0 0 40.1 20.3l23.5 238a93.2 93.2 0 0 1-33.6-28zM402.5 125c.3 1.5.4 3 .5 4.5a23 23 0 0 1-.5 4.6 23 23 0 0 1 19.3 22.5 23.6 23.6 0 0 1 0 2.2 23 23 0 0 1 14 7.4c-15.7 23.8-79.6 41.9-156.3 42.3-87.8.5-159.2-22.3-160.6-51.2l.6-.6a23 23 0 0 1-2.8-7.6c-8.4 8-13.5 14.4-12.6 23.8 0 1.2 37.2 266.9 37.2 266.9 4.3 42 65.4 75.7 138.2 76.1 72.8-.4 133.9-34 138.2-76.1l37.2-267c1.7-18.7-20.2-35.7-52.4-47.8z"/>
</svg>
