<svg xmlns="http://www.w3.org/2000/svg" viewBox="0 0 264 264">
  <path fill="#fa6d0e" d="M37.3 201C-27.3 125.9 15.4 1.6 130 .3c109.5-1.9 166 117.8 98 200.4z"/>
  <path fill="#ffd600" d="M39.4 194.4a117.4 117.4 0 0 1-13.8-128C44 31 78.3 9.1 121 5.8c5.3-.4 17-.4 21.9 0a119.3 119.3 0 0 1 68 27 114 114 0 0 1 33.2 129.3 132.2 132.2 0 0 1-17.6 31.1l-2.8 3.6h-73.6l-91 .2-17.5.2-2.3-2.7z"/>
  <g fill-rule="evenodd" stroke="#000">
    <path d="M60.7 41.3C47 42 47.2 57.2 53.2 61.6c5.7 4.7 19.2 4.1 18.7-10.7h-4.7c.8 7.4-6.2 10.2-10.8 6.6A6.6 6.6 0 0 1 60.8 46zM66 34l13.2-8.3 2 3.1-9.5 5.8 2.8 4.2 8.8-5.7 2 3.1-8.8 5.6 2.7 4.2 9.2-5.6 1.9 3-13.1 7.9zm21.7-12.6L94.6 42l5.2-2-2.4-7 2.4-.8 5.7 5.6 5.8-2-6.6-6c5.8-6.8-.8-16.4-12.8-10.3zm22.4-7.4.8 4.7 6.1-.9 2 17.4 4.6-.7-2-17 6.3-1.1-.4-4.5zm26.5-1.8L135.4 34l4.8.3 1.2-21.9zm15.9 2.1L147.2 35l4.3 1.1 2.3-8.4 8.8 2.6 1-4-8.7-2.5 1.1-4.5 9.5 2.5 1-4.3zm22.9 6.6-9 19.9 4.3 2 9.2-20zm14 6.6 12.7 9.1-2.2 3L191 33l-2.9 4.2 8.7 6-2.2 3-8.4-6-3 4 8.7 6.5-2 2.8-12.3-9.1zm20.2 14.8L194 56.7c2 4.1 11.4 15.2 21.2 6.7 7.8-7.7.5-15-5.5-21.1z"/>
    <path fill="#ffd600" d="m93.6 23.9 2.3 5.8c2.2-1 7.6-1.8 5.8-6-1.7-2.5-4.5-1.8-8.1.2zm115.8 24.6-9.5 8.8c1 2.2 5.9 8.8 12 3 5.2-5 .5-8.5-2.5-11.8z"/>
  </g>
  <path fill="#fa3008" d="M52.8 196.7C23 164.5 17.8 87.2 88 68l87.5-1.6c65 14.2 70.9 92.5 35.2 130z"/>
  <g fill="#fff">
    <path d="M44.5 110.8v41.7h11.3v-15.2h16.6v-9.7H55.8v-7.1h17.7v-9.6zm32.3.2v41h11.3v-12.3h3.7l7.4 12.7h13.3l-8.6-15c11.7-6.5 8.3-27-8-26.8l-19 .4zm37.7.2v41.4h31.8v-10.2h-19.6V136h18.4v-9.7h-18.4v-5.7h19.7V111zm59.8 14.1 7-7.6c-5.7-9.8-31.2-12.2-32.3 5.9 0 10.8 10.7 12.7 16.7 13.5 9.1 1.2 4.5 5.5 2.2 6-4.2.4-9.6-1.8-13-6.3l-7 7.3c12 15.5 29.7 7 32.4 3C190 130.8 170 124 163.8 125c-4.5.5-4-6.1 2.3-4.6 2.1.5 3.5.3 8.2 5z"/>
    <path d="M185 110.7V153h12v-16.4h12v16.3h12v-42h-12v15.4h-12v-15.5z"/>
  </g>
  <path fill="#fa3008" d="M88.3 121.2v8.5c5.4-.2 10.7.8 10.8-4.5 0-3.6-3.3-4.9-10.8-4z"/>
  <path fill="#04c754" d="M7 230.4c6.3-7.3 16.5-14 31.5-20l24.8 36.7a44.6 44.6 0 0 0-32.8 16.6 68.1 68.1 0 0 1-2.1-29.4c-10.5-4.7-14.8-3.1-21.4-3.9zm251-.4a80.6 80.6 0 0 0-31.5-19.9l-24.8 36.7a44 44 0 0 1 32.7 16.6 68.1 68.1 0 0 0 2.2-29.4c10.5-4.7 14.8-3.2 21.4-4z"/>
  <path fill="#00ac40" d="M30.2 214.2c3.5-1.9 4.8-2.5 8.4-3.7l9.2 33.4zm204.5-.5a45.8 45.8 0 0 0-8.4-3.6l-9.2 33.3z"/>
  <path fill="#009c34" d="m47.6 243.7 15.5 3-.6-7.9zM203 240l-1.3 7 16-3z"/>
  <g fill="#01912c">
    <path d="M30.7 197.6 47.5 244a510.4 510.4 0 0 1 170.1-.2l16.7-46.3c-71.7-11.2-135.3-12.6-203.6 0z"/>
    <path d="m95.8 191.4 2.1-3.7 7.6-1.7 7.6 5z"/>
  </g>
  <g fill="#f9f517">
    <path d="M75 203.5h-2V179h5.8c6.3 0 6.9 0 8.4.4a9 9 0 0 1 5.5 4.5c.5 1.1.7 2 .7 3.3.2 3-1.1 5.6-3.4 7-.7.4-.7.5-.6.6l5 8.7h-8l-2.3-3.9-2.4-4c-.1-.2-.3-.2-.8-.2h-.7v8.1H75zm8.6-13.7c1.6-.3 2.4-1.1 2.5-2.4 0-.9-.1-1.5-.7-2-.7-.8-1.8-1-4-1H80v.8l.1 2.8v2h1.4l2-.2z"/>
    <path d="M102.2 203.9a9 9 0 0 1-5.6-2.9 10 10 0 0 1-2.8-6.7c0-1.4 0-2.3.4-3.4 1.3-4 4.8-6.3 9.9-6.5h2.1c4.3.6 7.5 3.6 8.4 8 .2 1 .2 3 0 4a9.3 9.3 0 0 1-7.2 7 17 17 0 0 1-5.2.5zm2.4-3c.8-.2 1.2-.7 1.2-1.5l-.2-.9c-.4-1-.4-1-.3-1.3l.3-.3c.3-.1.5 0 .8.6.6.8 1.5 1.7 2.2 2 .5.2.6.2 1.1.2.6 0 .7-.1 1.1-.4.6-.4.7-.7.7-1.4 0-.8-.4-1.4-1.2-2l-2.2-.6c-1-.1-1.3-.2-1.4-.7-.1-.3 0-.7.4-1l1.1-.2c.6 0 1 0 1.2-.2 1.2-.6 1.3-2.7.1-3.6-.3-.2-.4-.2-1-.2-1.1 0-2 .7-2.3 2.2l-.2.5c-.3.2-.7.3-1.1 0-.4-.1-.5-.6-.2-1.9.2-1.6 0-2.2-.7-2.7-.4-.2-1.3-.3-1.8-.2-.4.2-1 .8-1.1 1.2-.3 1 0 1.5.9 2.5l.8 1c.2.5-.4 1-.9.9-.3-.1-.5-.4-1-1-.7-1.1-1.7-1.5-2.7-1-.8.4-1 1.4-.5 2.2.4.5 1 .8 1.8 1 1.3.3 1.7.6 1.3 1-.1.3-.2.3-.8.2-.9-.1-1.2 0-1.7.2s-.8.5-1 1c-.2 1.2.6 2.2 1.8 2.2.6 0 1-.2 1.9-1 .9-.8 1-1 1.3-.8.3.3.4.6.1 1.1-.4 1.3 0 2.6 1 3h1.2zm19.9 2.6c-3.3-.2-5-1.1-6-3-.7-1.4-.9-2.6-1-6.7v-2.7h-1.3l-.4-.1v-6h1.8v-5.2h7.1v5.2h3v6.2h-3v2.7c0 2.6 0 2.8.2 3 .3.6.5.6 2 .6h1.5v6.1h-3.9zm13.2-.1c-3.8-.3-5.5-1.9-6-5.3a33 33 0 0 1-.3-4v-3l-1-.1h-.8v-6.1h2l-.1-2.6v-2.6h7.1v5.3h2.9v6h-2.9v2.9c0 2.5 0 2.8.2 3 .3.5.5.6 2 .6h1.4v6h-4.5zm14.5-3.7c-3-.4-5.8-1.9-7.2-3.9-1.3-1.8-2-4-2-6.2a9 9 0 0 1 4.3-7.8c1.7-1.1 3-1.5 5.7-1.6l2.4.1a8 8 0 0 1 3.6 1.7c.9.8 1.9 2.3 2.4 3.6.6 1.6 1 4.1.7 5.4v.3h-6.3l-6.3.1.3.6c.8 1.2 2 1.9 3.8 1.9 1.4 0 2.6-.4 3.5-1l.3-.2 2 1.8c1.1 1 2 2 2.2 2 .1.2 0 .4-.8 1-1.2 1-2.7 1.6-4.4 2-1 .2-3.2.3-4.2.2zm3.7-12.1c-.2-1-.7-1.6-1.6-2-1-.5-2.3-.4-3.3 0-.7.4-1.3 1.3-1.5 2v.2h.7l3.2.1h2.5v-.3zm7.8 6.6v-9.4h7.1v2.6l.6-.5c.8-1 2-1.9 3.2-2.3 3.7-1.2 7.6 1.6 8.1 6l.1 6.8v6.1h-7.1v-11.1l-.3-.5a2.2 2.2 0 0 0-2-1.2c-1 0-1.9.7-2.3 1.9-.2.5-.2.7-.2 5.8v5.2h-7.2v-9.4zm2.6 31.6a10 10 0 0 1-5.5-2.5 9.3 9.3 0 0 1-2.7-6.7c0-2.7 1.2-5 3.5-6.9l.7-.6-1.5.1h-1.5s.5-.8.9-1a3 3 0 0 1 2.6-.7c.7.2.7 0 0-.8l-.8-.8.5-.4.5-.4.7 1 .7 1s.2-.1.3-.4c.8-1.1 1.9-1.6 2.9-1.3.7.1.7.2 0 1l-.6.8h1.5c3 0 5 .4 6.7 1.5.6.4 1.4 1.3 1.9 2 .3.4 1.2 2.2 1.4 2.9.5 1.3.5 3.7.1 5.1-.2 1-.9 2.3-1.6 3.2a11.8 11.8 0 0 1-10.7 3.9zm22.9.2a12 12 0 0 1-5.2-1.8 9.6 9.6 0 0 1-3.8-6c-.2-1-.2-2.7 0-3.6a9.4 9.4 0 0 1 7.2-7.7c1-.3 1.2-.3 2.9-.3a7 7 0 0 1 2.5.2c3.1.9 5.3 3.3 6 7 .2.7.3 1 .3 2.4v1.5h-12.7l.3.5c.7 1.4 2 2 4 2 1.2 0 2.6-.4 3.4-1l.3-.2 2.1 2 2.2 2-.4.4c-1.9 2-5.7 3.1-9.1 2.7zm3.7-12c-.2-1.1-1.1-2-2.5-2.2-1.8-.3-3.5.7-3.9 2.3 0 .2 0 .2.5.2l3.3.1h2.6v-.4zm13.5 12.2a11.3 11.3 0 0 1-6.2-2.4l2.6-4.7 1.2.6c1.9 1 2.7 1.2 4 1.2 1 0 1.6-.2 2-.6.4-.4.2-1.1-.5-1.3l-1.6-.1c-1 0-1.5 0-2-.2a7 7 0 0 1-5.2-4.2 4 4 0 0 1-.2-1.6c0-.7.2-1.2.4-1.8.8-2.4 3.2-4 5.8-4.5h2.2c1.4 0 2.3.1 3.6.6 1.4.4 3.3 1.3 3.3 1.5a47.2 47.2 0 0 1-2.6 4l-3.3-1-1.5-.1c-1 0-1.2 0-1.6.5-.2.3-.2.8.1 1.1.2.2.3.2 1.6.2 3.2 0 5.3.8 6.7 2.4.8.9 1.3 2 1.4 3.3a6 6 0 0 1-2 4.9 5 5 0 0 1-2.7 1.6c-1.5.5-3.9.8-5.5.6zm-53.7-.6c-.7 0-2-.2-2.6-.4-2.6-.7-3.9-2.2-4.4-5.2l-.2-3.7V213h-1.8v-6h2l-.1-2.3v-3h7.1v5.3h3v6.2h-3v5.5l.7.7 1.6.1h1.4v6.1h-3.7zm-24.2.6c-1.4-.3-3-1-4.3-2.4a9.4 9.4 0 0 1-3-6.9c0-1.7.2-3 .7-4.5a8 8 0 0 1 2-3.4c2-2 4.5-2.9 6.9-2.3 1.3.4 2.4 1 3.6 2.2l.6.5V207h6.7v18.6H135v-2.4l-.7.6a7 7 0 0 1-5.8 2.3zm4.3-6.9a3.7 3.7 0 0 0 1.7-4.2 3 3 0 0 0-2-1.9 3 3 0 0 0-2.4.1 3 3 0 0 0-1.8 3 3 3 0 0 0 1 2.3c1 1 2.4 1.2 3.5.7zm-20.4 5.1a219.8 219.8 0 0 1 0-8.9c-.1-1.3-.2-1.5-.7-2-.5-.5-1.5-.7-2.3-.5-.6.3-1.1 1-1.3 1.8v10.8h-7.2v-11.1l-.3-.4c-.2-.4-.5-.7-1-1l-.9-.1h-.9c-.5.4-1 1-1.2 2v10.7h-7.2v-18.8h7v.9l.1.9c.1 0 .4-.2.7-.6.6-.6 1.2-1 2.2-1.3 2.7-.9 5.3-.3 7.3 1.8l.5.5.2-.3c.8-1.3 3-2.3 5.3-2.3 1.9 0 3.5.7 4.7 1.8a8 8 0 0 1 2.1 5.3l.1 6.4v5.7h-7.2v-1.3zm-37 1.6a8.8 8.8 0 0 1-3.7-1.5 10.4 10.4 0 0 1-4.4-9 9 9 0 0 1 7.4-8.6c2-.5 4.1-.6 5.8-.2a10 10 0 0 1 7 13.8c-1.4 2.9-4.2 4.8-8 5.4-1 .1-3.4.2-4 0zm3.2-6.7c1-.2 2-.9 2.4-1.8.3-.5.3-.5.3-1.2s-.1-1.2-.4-1.7a3.7 3.7 0 0 0-5-1.6c-.9.4-1.7 1.5-1.9 2.5-.2 1.5 1 3.4 2.5 3.9l2-.1z"/>
    <path d="M56.3 216.8v-8.9h-6.5V201h9.8l9.8.1v6.8h-6.2v17.8h-6.9v-8.9zM219.9 205a3 3 0 0 0-1.7.3 3 3 0 0 0-1 4.4 3 3 0 0 0 2 1.2h1.3c.5-.2 1-.4 1.3-.8.6-.7 1-1.5 1-2.3 0-.8-.4-1.5-1-2a3.3 3.3 0 0 0-2-.9zm-.2.9h.5c.8.3 1.3.7 1.5 1.4.3 1-.5 2.4-1.5 2.6-.5.1-1.2 0-1.7-.3a2 2 0 0 1-.7-2.4c.2-.5.5-1 1-1.1.3-.2.5-.2.9-.2z"/>
    <path d="M218.9 209.2h-.2v-2.6h1.5c.2 0 .4.3.6.5v.3c0 .4 0 .6-.3.8-.1 0-.1 0 0 0l.4 1h-.8l-.3-.4a36.7 36.7 0 0 0-.3-.5v.9h-.7zm.9-1.5c.2 0 .3-.1.3-.2l-.1-.3h-.5v.5h.3z"/>
  </g>
  <path fill="#01912c" d="M92.5 57.2a25.5 25.5 0 0 1 32.9-3.2l-7-14.3 7.9-.8 4.1 14.5c5.7-6.8 18.1-12.5 26.8-.6-7.2.6-8.7 4.1-9.2 7.3 21.3-2.1 27.6 4 31.4 8.2-12.7-3.7-27.6 11.7-42 2.4-2.3 14-13.1 14.6-22.5 14.3 3-4.6 6.8-8.9 3.8-15.3-11.5 8.8-20.6 5.1-33.7-1.3a80 80 0 0 1 25.9-6.7 44.6 44.6 0 0 0-18.4-4.5z"/>
</svg>
