<svg viewBox="0 0 389 410" xmlns="http://www.w3.org/2000/svg"><path d="m347.56 306.11c25.48-32.84 40.66-74.03 40.66-118.81 0-107.14-86.84-187.3-193.98-187.3S0.26 80.16 0.26 187.3c0 44.81 15.22 86.05 40.74 118.9z" fill="#fa6d0e"/><path d="M194.24 8.53c-50.05 0-96.68 18.15-131.29 51.12C28.02 92.92 8.78 138.25 8.78 187.3c0 38.03 11.44 74.58 33.06 105.7 2.76 3.97 5.67 7.81 8.7 11.53 5.64-.95 11.29-1.81 16.94-2.64l251.81-.33c-.2-.03-.39-.05-.59-.08 6.45.93 12.88 1.9 19.31 2.97 3.09-3.8 6.06-7.73 8.87-11.79 21.47-31.04 32.81-67.47 32.81-105.37 0-49.05-19.24-94.38-54.17-127.65-34.61-32.96-81.24-51.12-131.29-51.12z" fill="#fed801"/><path d="m322.48 74.42-8.41-9.29-25.74 23.3 8.41 9.29c6.29 6.94 15.9 11 25.67 2.16 4.66-4.22 6.66-9.03 6.04-13.48-.62-4.45-2.64-8.3-5.96-11.97zm-20.6 17.17-1.63-1.8 13.99-12.66 1.6 1.76c4.9 5.39 5.03 10.14.48 14.26-4.77 4.32-9.58 3.8-14.44-1.56zm-10.48-18.35 4.29-6.3-12.98-8.84 2.98-4.38 13.68 9.31 4.46-6.55-21.62-14.72-19.54 28.7 21.62 14.72 4.46-6.55-13.68-9.31 3.34-4.91zm-36.65 12.71 13.92-31.82-8.26-3.61-13.91 31.81zm-30.43-46.08-8.15 33.76 8.76 2.12 2.99-12.43 13.92 3.36 1.79-7.41-13.91-3.36 1.49-6.22 15.02 3.63 1.86-7.71zm-15.34-1.64-9-.49-1.89 34.67 9 .49zm-48.82 10.25 9.34-1.13 3.21 26.6 9-1.09-3.21-26.6 9.35-1.12-.95-7.87-27.68 3.34zm-22.8-1.36-13.07 4.48 11.25 32.85 8.53-2.92-3.48-10.17 3.38-1.16 9.52 8.1 9.79-3.36-11-9.32c3.33-3.29 4.19-7.2 2.6-11.84-2.5-7.31-8.95-9.6-17.52-6.66zm.67 16.79-2.65-7.73 4.03-1.38c3.93-1.35 6-.8 6.9 1.82.92 2.67-.5 4.62-4.26 5.91zm-15.47 11.67-4.07-6.45-13.28 8.38-2.83-4.48 13.99-8.83-4.23-6.7-22.12 13.96 18.53 29.36 22.11-13.96-4.23-6.7-13.99 8.83-3.17-5.03zm-56.42 47.2c.67 4.06.24 6.62-2.49 9.41-1.81 1.84-3.93 2.74-6.45 2.69-2.52-.05-4.81-1.11-6.82-3.09-1.98-1.94-3.06-4.16-3.15-6.68-.1-2.53.69-4.67 2.46-6.47 2.49-2.55 4.56-2.89 8.06-2.71l-.18-8.16c-5.4-.37-10.1 1.47-14.02 5.47-3.57 3.64-5.3 7.86-5.23 12.69.07 4.8 1.91 8.95 5.56 12.52 3.64 3.57 7.87 5.42 12.63 5.44 4.77.02 8.91-1.8 12.48-5.45 4.4-4.49 6.18-9.62 5.31-15.33z" fill="#000"/><path d="m319.31 301.6c20.68-24.49 32.57-56.05 30.29-92.65-3.57-57.21-36.91-91.65-85-106.83l-144.67 4.43c-67.05 23.86-84.07 71.37-80.93 121.78 1.81 29.01 12.29 53.77 28.5 73.6z" fill="#f93208"/><path d="M37.35 409.67c-.3.39-.9.36-1-.05-3.7-14.71-4.61-30.44-2.81-46.27.02-.17-.15-.27-.36-.34-9.97-3.11-20.99-4.9-32.71-4.67-.64.01-.62-.54.04-1.18 12.46-12.05 27.47-21.47 44.18-27.44 5.78 16.28 11.56 32.46 17.1 48.8.11.31.54.49.99.42.08-.01 13.52-2.27 23.75-3.66.41 4.3.84 8.6.84 8.6-21.2 1.35-39.3 11.65-50.02 25.8zm307-79.95c-5.78 16.28-11.45 32.59-16.97 48.92-.11.32-.54.49-1 .42-.07-.01-13.79-2.41-23.86-3.79-.36 4.01-.82 8.59-.82 8.59 21.2 1.35 39.29 11.66 49.99 25.81.3.39.91.36 1.01-.05 3.7-14.72 4.63-30.44 2.81-46.27-.02-.17.15-.27.35-.34 9.98-3.11 20.99-4.9 32.72-4.67.64.01.62-.54-.04-1.18-12.46-12.05-27.48-21.47-44.19-27.44z" fill="#0eb242"/><path d="m61.65 378.58-25.51-45.42c.05-.02.12-.05.18-.07.82-.36 4.39-1.9 8.37-3.34 5.56 15.66 11.62 33.13 16.96 48.83zm265.74.08c5.35-15.74 11.4-33.23 16.97-48.92.51.18 1.04.38 1.55.56 2.79 1.04 5.28 2.1 6.4 2.58.21.09.43.19.64.28z" fill="#039933"/><path d="m87.37 383.87-24.83-4.78c.01-.01.02-.01.03-.01.03 0 .07-.01.1-.02.04 0 4.53-.79 10.28-1.73 4.55-.73 9.13-1.41 13.59-2.06zm214.35 0c.01-.03.46-4.59.82-8.59 4.22.6 8.52 1.26 12.81 1.94 6.09.98 11 1.84 11.05 1.85.03 0 .07.02.11.02.01 0 .01 0 .02.01l-24.81 4.78z" fill="#038d2f"/><path d="M272.6 296.16c-57.23-5.57-114.02-3.82-171.05 1.45-21.47 1.99-42.78 5.34-63.96 9.21-.56.1-.92.47-.8.8 8.55 23.63 16.84 47.3 24.89 71.03.11.31.54.5.99.42 86.93-15.24 176.79-15.24 263.72 0 .45.08.89-.1 1-.42 8.05-23.73 16.34-47.4 24.89-71.03.12-.33-.25-.7-.8-.8-26.09-4.77-52.45-8.09-78.88-10.67z" fill="#02902e"/><path d="M218.73 92.73c11.33-1.01 36.1-.44 48.19 11.42.73.71.1 2.36-.94 2.08-8.86-2.39-20.19 2.3-31.56 5.68-11.36 3.38-22.75 5.46-31.71-2.14-.5 4.44-4.5 25.91-35.1 22.72-.72-.08-1.01-.86-.48-1.31 4.75-4.05 10.56-15.19 5.57-22.32-15.57 10.33-23.61 10.78-52.33-1.66-.94-.41-.38-1.93.72-2.17 5.97-1.34 20.14-6.49 32.85-8.89 2.42-.46 4.81-.74 7.11-.77-13.16-3.13-18.9-5.86-27.56-5.82-.95 0-1.43-1.17-.74-1.83 13.57-13.05 38.16-13.71 50.02-3.99l-10.62-22.18 12.9-1.94s3.37 11.82 6.38 22.45c13.43-14.71 34.21-13.23 41.21-.37.41.76-.27 1.66-1.13 1.51-7.04-1.21-11.87 4.66-12.88 9.51z" fill="#02902e"/><path d="M186.05 211.94h28.78v-16.31h-28.78v-7.39h30.33v-16.86h-50.26v65.97h50.26v-16.85h-30.33zm33.48-20.23c0 5.35 1.8 10 5.52 13.73 3.65 3.65 8.41 5.81 13.96 6.84l9.81 1.82c5.38 1 5.39 3.06 5.39 3.76 0 2.31-2.62 3.74-6.83 3.74-6.76 0-12.26-2.93-16.88-8.9l-.82-1.06-12.05 12.16.54.79c5.91 8.59 16.28 13.77 27.84 13.77 7.66 0 13.92-1.89 19.12-5.78 5.25-3.92 7.92-9.09 7.92-15.37 0-12.09-7.18-19.42-21.3-21.93l-8.72-1.55c-4.66-.83-4.66-2.61-4.66-3.21 0-1.64 1.6-3.38 6.1-3.38 5.13 0 9.65 2.49 13.9 7.57l.85 1.01 12.05-12.89-.67-.79c-6.61-7.76-15.17-11.66-25.4-11.66-6.95 0-13.02 1.98-18.06 5.87-5.06 3.92-7.62 9.11-7.62 15.45zm92.91 45.65h18.94v-65.97h-18.94v23.79h-18.2v-23.79h-18.84v65.97h18.84V213.03h18.2zM76 213.94h26.24v-16.31H76v-9.39h28.33v-16.85H57.14v65.97h18.85zm55.17 3.72 11.71 19.71h21.69l-13.94-23.39c7.34-3.97 11.06-10.51 11.06-19.45 0-14.7-10.05-23.13-27.59-23.13h-26.5v65.97h18.86l.0001-19.71zm-4.72-29.42h6.64c5.85 0 9.73 1.04 9.73 6.1 0 2.81-1.01 6.56-9.73 6.56h-6.64z" fill="#fff"/><path d="M101.45 277.65v38.78h11.89v-12.47h1.82l7.3 12.47h13.49l-8.1-13.83c4.64-2.44 6.27-6.57 6.27-11.52 0-8.16-5.89-13.43-15.53-13.43zm69.4 1.21v8.06h-3.07v10.11h3.07v8.75c0 7.12 4.99 10.83 10.83 10.83h6.75v-10.24c-1.02.02-3.08.02-4.21.02-.88 0-1.61-.72-1.61-1.61v-7.75h4.68v-10.11h-4.68v-8.06zm21.53 0v8.06h-3.07v10.11h3.07v8.75c0 7.12 4.99 10.83 10.83 10.83h6.75v-10.24c-1.02.02-3.08.02-4.21.02-.88 0-1.61-.72-1.61-1.61v-7.75h4.68v-10.11h-4.68v-8.06zm33.64.41c-8.36 0-15.43 6.03-15.43 15.99 0 9.72 7.13 15.39 15.67 15.39 6.26 0 10.88-1.37 14.16-5.11l-7.12-6.77c-2.19 1.66-3.89 2.34-6.23 2.34-2.12 0-4.85-.84-5.88-3.48h19.6c1.08-11.82-5.81-18.35-14.77-18.35zm36.08 6.75c-2.92 0-5.77 1.3-7.68 3.6v-2.65h-11.89v29.46h11.89v-15.36c0-5.97 6.64-5.17 6.64-.87v16.23h11.85v-18.66c0-5.76-3.23-11.75-10.82-11.75zm-111.57.06c-9.3 0-16.47 5.63-16.47 15.52s7.17 15.52 16.47 15.52 16.47-5.04 16.47-15.52-7.17-15.52-16.47-15.52zm-37.19.71h3.41c3 0 5.04 1.64 5.04 4.02 0 2.44-1.87 4.02-5.04 4.02h-3.41zm112.47 1.36c2.2 0 3.98 1.31 4.55 3.6h-9.05c.85-2.37 2.6-3.6 4.5-3.6zm-160.24 23.93v11.25h10.04v27.53h11.4v-27.53h10.1v-11.25zm148.78 1.17v8.06h-3.07v10.11h3.07v8.75c0 7.12 4.99 10.83 10.83 10.83h6.75v-10.24c-1.02.02-3.08.02-4.21.02-.88 0-1.61-.72-1.61-1.61v-7.75h4.68v-10.11h-4.68v-8.06zm115.33 4.77c-1.24 0-2.29.44-3.16 1.33-.85.88-1.28 1.94-1.28 3.21 0 1.25.42 2.31 1.28 3.19.86.88 1.91 1.31 3.16 1.31s2.31-.44 3.17-1.31c.87-.88 1.31-1.94 1.31-3.19 0-1.27-.44-2.32-1.31-3.21-.87-.88-1.93-1.33-3.17-1.33zm-88.01 0-2.18 1.81 2.55 2.22c-2.39-.46-4.8.36-6.3 2.63-.26.39-.37.61-.34.73.02.11.17.11.44.06 1.23-.2 2.8-.39 4.22-.38-3.93 2.62-6.47 6.57-6.44 11.61.05 8.91 7.1 14.64 15.68 14.64 8.5 0 17.7-6.23 17.53-15.37-.18-9.78-7.98-15.78-18.15-14.23.01-.86.29-1.53 1-1.91.35-.19.59-.18.59-.32 0-.07-.05-.15-.24-.31-2.08-1.66-5.07-.02-6.02 2.22zm88.01 1.18c.92 0 1.68.33 2.31.98.63.65.94 1.44.94 2.38 0 .93-.31 1.71-.94 2.36-.63.63-1.39.95-2.31.95-.9 0-1.67-.31-2.29-.95-.62-.64-.93-1.43-.93-2.36 0-.94.32-1.73.93-2.38.62-.65 1.4-.98 2.29-.98zm-46.29 1.05c-8.36 0-15.43 6.03-15.43 15.99 0 9.72 7.13 15.39 15.67 15.39 6.26 0 10.88-1.37 14.16-5.11l-7.12-6.78c-2.19 1.66-3.89 2.34-6.23 2.34-2.12 0-4.85-.84-5.88-3.48h19.6c1.08-11.82-5.81-18.35-14.77-18.35zm44.63.15v4.1h1.12v-1.12h.55l.79 1.12h1.26l-.96-1.31c.57-.26.85-.7.85-1.34 0-.98-.76-1.46-1.75-1.46zm-15.59.01c-7.07 0-13.03 4.79-13.03 10.26 0 6.56 7.11 9.78 12.86 9.64 1.82-.04 2.32.16 2.32 1.01 0 .86-1.16 1.51-2.71 1.51-2.88 0-5.43-.93-8.41-2.9l-4.7 7.85c2.95 2.92 9.22 4.03 13.28 4.03 7.88.01 13.38-4.97 13.38-10.6 0-7.45-5.87-9.78-13.71-9.83-1.29-.01-1.86-.43-1.86-1.24 0-.69 1.06-1.22 1.96-1.23 1.35-.02 4.74.61 8.1 2.28l4.47-7.22c-3.11-2.15-7.33-3.56-11.93-3.56zm-203.22.04c-9.15 0-16.21 5.63-16.21 15.52s7.06 15.52 16.21 15.52 16.21-5.03 16.21-15.52-7.06-15.52-16.21-15.52zm80.98 0c-7.72 0-13.67 6-13.67 15.52s5.95 15.52 13.67 15.52c2.97 0 5.63-1.4 7.52-3.94v3.16h11.52v-29.46h-11.52v3.27c-1.81-2.53-4.51-4.07-7.52-4.07zm-44.2.01c-2.67 0-5.32.96-7.21 2.85v-2.05h-11.52v29.46h11.52v-15.66c0-5.69 6.15-4.71 6.15-.57v16.23h11.63v-15.66c0-5.69 6.28-4.71 6.28-.57v16.23h11.81v-18.66c0-6.81-4.11-11.59-11.71-11.59-2.95 0-6 1.35-8 3.71-1.62-2.67-4.51-3.71-8.96-3.71zm183.14.9h.54c.54 0 .82.16.82.49 0 .34-.28.53-.82.53h-.54zm-45.96 7.77c2.2 0 3.98 1.31 4.55 3.6h-9.05c.85-2.37 2.6-3.6 4.5-3.6zm-173.93 1.58c2.87 0 5.08 1.57 5.08 4.82s-2.21 4.82-5.08 4.82-5.08-1.75-5.08-4.82 2.21-4.82 5.08-4.82zm83.58.48c2.51 0 4.68 1.9 4.68 4.64 0 2.75-1.71 4.8-4.68 4.8s-4.77-2.06-4.77-4.8c0-2.75 2.25-4.64 4.77-4.64z" fill="#fed801"/><path d="M150.43 291.95c.67.67.8 1.61.64 2.51-.09.51-.24 1.01-.37 1.5-.26 1.08-.36 2.28.74 2.92 1.17.69 2.12.04 2.57-1.1.23-.58.38-1.22.64-1.78.78-1.69 3.23-2.06 4.4-.58.85 1.07.92 2.75.06 3.84-1.05 1.33-2.53.77-4.09 1.13-.69.16-1.12.76-1.14 1.4-.03.65.35 1.35 1.25 1.71 1.22.49 2.56.45 3.8.86 2.23.73 2.89 2.63 2.4 4-.49 1.37-2.13 2.2-4.5.82-1.4-.82-1.74-1.85-2.71-2.93-.68-.74-1.42-.87-1.89-.58-.47.29-.68 1.01-.29 1.95.29.7.8 1.41.79 2.19-.02 1.33-1.17 2.02-2.35 2.08-1.18.06-2.4-.52-2.58-1.74-.19-1.35.51-2.3.48-3.5-.02-.72-.43-1.09-.94-1.17-.5-.07-1.1.16-1.48.66-.45.59-.91 1.23-1.53 1.66-1.26.87-3.18.95-3.95-.58-.42-.84-.34-1.96.24-2.71.68-.87 1.75-.8 2.75-.77.43.01.87.04 1.3.02.59-.02 1.06-.2 1.11-.86.06-.83-.66-1.16-1.33-1.37-.93-.29-2.56-.52-3.3-1.11-1.48-1.17-1.29-3.21.53-3.82.59-.2 1.35-.19 1.93.06.85.36 1.44 1.38 1.92 2.12.51.79.98 1.12 1.96.97 1.16-.17 1.37-1.1.99-2.06-.31-.78-.92-1.19-1.61-1.61-1.2-.73-1.63-2.18-.98-3.42.5-.96 1.66-1.49 2.76-1.45.66.02 1.3.25 1.76.72z" fill="#02902e"/></svg>
