<svg xmlns="http://www.w3.org/2000/svg" viewBox="0 0 560 560">
  <path fill="#FA320A" d="M478.3 297c-4-64-36.5-111.8-85.5-138.6.3 1.6-1 3.5-2.7 2.8-32-14-86.3 31.3-124.2 7.6.2 8.5-1.4 50-60 52.5-1.3 0-2.1-1.4-1.2-2.4 7.8-8.9 15.7-31.5 4.3-43.6-24.3 21.9-38.4 30-85.1 19.2-29.9 31.3-46.8 74-43.5 127.3C87.2 430.5 189 492.7 291.6 486.3c102.6-6.4 193.5-80.6 186.7-189.3"/>
  <path fill="#00912D" d="M291.4 132.3c21-5 81.7-.5 101 25.3 1.3 1.5-.4 4.4-2.3 3.6-32-14-86.3 31.3-124.2 7.6.2 8.5-1.4 50-60 52.5-1.3 0-2.1-1.4-1.2-2.4 7.8-8.9 15.7-31.5 4.3-43.6-26.5 23.8-40.8 31.4-98.4 15.9-1.9-.5-1.2-3.6.8-4.3 10.8-4.2 35.5-22.4 58.8-30.4 4.4-1.5 8.9-2.7 13.2-3.4-25.7-2.3-37.3-5.9-53.6-3.4a2 2 0 0 1-1.9-3.2c22-28.4 62.5-37 87.5-21.9A3055 3055 0 0 1 188 90.3l28.6-16.2 20.4 45.6c21.2-31.5 60.8-34.4 77.6-12 1 1.3 0 3.1-1.7 3.1-13.7-.3-21.2 12-21.7 21.5h.2"/>
</svg>
