<svg xmlns="http://www.w3.org/2000/svg" viewBox="0 0 560 560">
  <path fill="#0AC855" d="M445.2 444.7c-79.4 4.2-95.6-86.7-126.7-86-13.3.3-23.8 14.1-19.2 30.3a182 182 0 0 0 14 30c15.5 28.6-7.5 60.9-34.4 63.6-44.8 4.5-63.4-21.4-62.3-48 1.3-29.9 26.6-60.4.7-73.3-27.2-13.6-49.3 39.5-75.4 51.4-23.5 10.8-56.2 2.4-67.8-23.7a49.7 49.7 0 0 1 29.6-67.3c22.7-8.4 73.3 11 76-13.6 3-28.4-53.2-30.8-70.1-37.6-30-12.1-47.6-37.9-33.8-65.6 10.4-20.7 41-29.2 64.3-20 27.9 10.8 32.4 39.8 46.7 51.8 12.3 10.4 29.2 11.7 40.2 4.6 8.1-5.3 10.8-16.9 7.8-27.4-4.1-14-15-22.8-25.4-31.4-18.8-15.2-45.3-28.3-29.3-70 13.2-34 51.7-35.3 51.7-35.3a50 50 0 0 1 40.1 12.9c15 13.3 17.9 31.1 15.4 50.2-2.3 17.3-8.5 32.5-11.7 49.7-3.7 20 7 40.1 27.3 40.9 26.7 1 34.7-19.5 38-32.5 4.7-19 11-36.7 28.7-47.8 25.3-16 60.5-12.5 76.9 18.2 12.9 24.3 8.7 57.7-11 76a44.4 44.4 0 0 1-31.2 11.1c-16.6.1-33.2-.3-48.6 7.5-10.5 5.3-15 13.9-15 25.4 0 11.3 5.8 18.6 15.3 23.4 17.9 9 37.6 10.8 56.9 14.2 28 4.9 52.6 14.8 68.3 40.7l.5.7c18.1 30.7-.9 75-36.5 76.9"/>
</svg>
