<svg xmlns="http://www.w3.org/2000/svg" viewBox="0 0 190.2 81.5">
  <defs>
    <linearGradient id="a" x2="190.2" y1="40.8" y2="40.8" gradientUnits="userSpaceOnUse">
      <stop offset="0" stop-color="#90cea1"/>
      <stop offset=".6" stop-color="#3cbec9"/>
      <stop offset="1" stop-color="#00b3e5"/>
    </linearGradient>
  </defs>
  <path fill="url(#a)" d="M105.7 36h66.9a17.7 17.7 0 0 0 17.6-17.6A17.7 17.7 0 0 0 172.6.7h-67A17.7 17.7 0 0 0 88 18.4a17.7 17.7 0 0 0 17.7 17.7zm-88 45h76.9a17.7 17.7 0 0 0 17.6-17.6 17.7 17.7 0 0 0-17.6-17.7h-77A17.7 17.7 0 0 0 0 63.4a17.7 17.7 0 0 0 17.7 17.7zm-7.3-45.6h7.8V7h10.1V0H.3v6.9h10.1zm28.1 0h7.8V8.3h.1l9 27.1h6l9.3-27.1h.1v27.1h7.8V0H66.8l-8.2 23.1h-.1L50.3 0H38.5zm114 20.3a15 15 0 0 0-4.6-5.6 18.6 18.6 0 0 0-6.7-3 33.5 33.5 0 0 0-8-1h-11.7v35.4h12.7a24.6 24.6 0 0 0 7.6-1.2A19.3 19.3 0 0 0 148 77a16.3 16.3 0 0 0 4.4-5.5 17 17 0 0 0 1.6-7.6 18.5 18.5 0 0 0-1.7-8.2zM145 68.6a8.8 8.8 0 0 1-2.6 3.4 10.7 10.7 0 0 1-4 1.8 21.6 21.6 0 0 1-5 .6h-4v-21h4.5a17 17 0 0 1 4.7.6 11.7 11.7 0 0 1 3.9 1.9A9.1 9.1 0 0 1 145 59a9.9 9.9 0 0 1 1 4.5 11.9 11.9 0 0 1-1 5.1zm44.6-.1a8 8 0 0 0-1.5-2.7 8.4 8.4 0 0 0-2.5-1.8 10.3 10.3 0 0 0-3.1-1v-.1a9.2 9.2 0 0 0 4.4-2.8 7.4 7.4 0 0 0 1.7-5 8.4 8.4 0 0 0-1.2-4.7 8 8 0 0 0-3-2.7 12.6 12.6 0 0 0-4.2-1.3 32.8 32.8 0 0 0-4.6-.3h-13.2v35.4H177a22.4 22.4 0 0 0 4.7-.5 13.5 13.5 0 0 0 4.3-1.7 9.4 9.4 0 0 0 3.1-3 8.5 8.5 0 0 0 1.2-4.7 9.4 9.4 0 0 0-.5-3.1zm-19.4-15.8h5.3a10 10 0 0 1 1.9.2 6.2 6.2 0 0 1 1.7.6 3.4 3.4 0 0 1 1.2 1.1 3.2 3.2 0 0 1 .5 1.8 3.6 3.6 0 0 1-.5 1.8 3.4 3.4 0 0 1-1 1.2 5 5 0 0 1-1.7.7 7.5 7.5 0 0 1-1.7.2h-5.7zm11.7 20a3.9 3.9 0 0 1-1.2 1.3 4.6 4.6 0 0 1-1.7.7 8.2 8.2 0 0 1-1.8.2h-7v-8h6a15.3 15.3 0 0 1 2 .2 8.5 8.5 0 0 1 2 .5 4 4 0 0 1 1.5 1.2 3.1 3.1 0 0 1 .7 2 3.7 3.7 0 0 1-.5 2z"/>
</svg>
